<svg width="29" height="29" fill="none" xmlns="http://www.w3.org/2000/svg"><mask id="mask"><path d="M29 14.5a14.5 14.5 0 11-29 0 14.5 14.5 0 0129 0z" fill="#ffffff"/></mask><g mask="url(#mask)" fill="#647c9f"><path d="M8.29 4.14a4.14 4.14 0 11-8.29 0 4.14 4.14 0 018.29 0zM8.29 14.5a4.14 4.14 0 11-8.29 0 4.14 4.14 0 018.29 0zM8.29 24.86a4.14 4.14 0 11-8.29 0 4.14 4.14 0 018.29 0zM18.64 4.14a4.14 4.14 0 11-8.28 0 4.14 4.14 0 018.28 0zM18.64 14.5a4.14 4.14 0 11-8.28 0 4.14 4.14 0 018.28 0zM18.64 24.86a4.14 4.14 0 11-8.28 0 4.14 4.14 0 018.28 0zM29 4.14a4.14 4.14 0 11-8.29 0 4.14 4.14 0 018.29 0zM29 14.5a4.14 4.14 0 11-8.29 0 4.14 4.14 0 018.29 0zM29 24.86a4.14 4.14 0 11-8.29 0 4.14 4.14 0 018.29 0z"/></g></svg>